<svg width="1363" height="163" viewBox="0 0 1363 163" fill="none" xmlns="http://www.w3.org/2000/svg">
<path d="M0 15C0 6.71573 6.71573 0 15 0H37V163H15C6.71573 163 0 156.284 0 148V15Z" fill="#424242"/>
<rect width="1097" height="163" transform="translate(37)" fill="#F0F0F0"/>
<path d="M101.906 53.9219L94.3945 51.2383V48.0859L104.602 52.375V54.6367L101.906 53.9219ZM94.3945 56.1719L101.918 53.4297L104.602 52.7852V55.0352L94.3945 59.3242V56.1719ZM119.578 53.5117H115.195L115.172 51.0977H118.852C119.5 51.0977 120.031 51.0156 120.445 50.8516C120.859 50.6797 121.168 50.4336 121.371 50.1133C121.582 49.7852 121.688 49.3867 121.688 48.918C121.688 48.3867 121.586 47.957 121.383 47.6289C121.188 47.3008 120.879 47.0625 120.457 46.9141C120.043 46.7656 119.508 46.6914 118.852 46.6914H116.414V61H112.898V43.9375H118.852C119.844 43.9375 120.73 44.0312 121.512 44.2188C122.301 44.4062 122.969 44.6914 123.516 45.0742C124.062 45.457 124.48 45.9414 124.77 46.5273C125.059 47.1055 125.203 47.793 125.203 48.5898C125.203 49.293 125.043 49.9414 124.723 50.5352C124.41 51.1289 123.914 51.6133 123.234 51.9883C122.562 52.3633 121.684 52.5703 120.598 52.6094L119.578 53.5117ZM119.426 61H114.234L115.605 58.2578H119.426C120.043 58.2578 120.547 58.1602 120.938 57.9648C121.328 57.7617 121.617 57.4883 121.805 57.1445C121.992 56.8008 122.086 56.4062 122.086 55.9609C122.086 55.4609 122 55.0273 121.828 54.6602C121.664 54.293 121.398 54.0117 121.031 53.8164C120.664 53.6133 120.18 53.5117 119.578 53.5117H116.191L116.215 51.0977H120.434L121.242 52.0469C122.281 52.0312 123.117 52.2148 123.75 52.5977C124.391 52.9727 124.855 53.4609 125.145 54.0625C125.441 54.6641 125.59 55.3086 125.59 55.9961C125.59 57.0898 125.352 58.0117 124.875 58.7617C124.398 59.5039 123.699 60.0625 122.777 60.4375C121.863 60.8125 120.746 61 119.426 61ZM134.672 52.3516V55H128.051V52.3516H134.672ZM137.695 43.9375H144.059C145.363 43.9375 146.484 44.1328 147.422 44.5234C148.367 44.9141 149.094 45.4922 149.602 46.2578C150.109 47.0234 150.363 47.9648 150.363 49.082C150.363 49.9961 150.207 50.7812 149.895 51.4375C149.59 52.0859 149.156 52.6289 148.594 53.0664C148.039 53.4961 147.387 53.8398 146.637 54.0977L145.523 54.6836H139.992L139.969 51.9414H144.082C144.699 51.9414 145.211 51.832 145.617 51.6133C146.023 51.3945 146.328 51.0898 146.531 50.6992C146.742 50.3086 146.848 49.8555 146.848 49.3398C146.848 48.793 146.746 48.3203 146.543 47.9219C146.34 47.5234 146.031 47.2188 145.617 47.0078C145.203 46.7969 144.684 46.6914 144.059 46.6914H141.211V61H137.695V43.9375ZM147.234 61L143.344 53.3945L147.059 53.3711L150.996 60.8359V61H147.234ZM152.32 54.7891V54.543C152.32 53.6133 152.453 52.7578 152.719 51.9766C152.984 51.1875 153.371 50.5039 153.879 49.9258C154.387 49.3477 155.012 48.8984 155.754 48.5781C156.496 48.25 157.348 48.0859 158.309 48.0859C159.27 48.0859 160.125 48.25 160.875 48.5781C161.625 48.8984 162.254 49.3477 162.762 49.9258C163.277 50.5039 163.668 51.1875 163.934 51.9766C164.199 52.7578 164.332 53.6133 164.332 54.543V54.7891C164.332 55.7109 164.199 56.5664 163.934 57.3555C163.668 58.1367 163.277 58.8203 162.762 59.4062C162.254 59.9844 161.629 60.4336 160.887 60.7539C160.145 61.0742 159.293 61.2344 158.332 61.2344C157.371 61.2344 156.516 61.0742 155.766 60.7539C155.023 60.4336 154.395 59.9844 153.879 59.4062C153.371 58.8203 152.984 58.1367 152.719 57.3555C152.453 56.5664 152.32 55.7109 152.32 54.7891ZM155.695 54.543V54.7891C155.695 55.3203 155.742 55.8164 155.836 56.2773C155.93 56.7383 156.078 57.1445 156.281 57.4961C156.492 57.8398 156.766 58.1094 157.102 58.3047C157.438 58.5 157.848 58.5977 158.332 58.5977C158.801 58.5977 159.203 58.5 159.539 58.3047C159.875 58.1094 160.145 57.8398 160.348 57.4961C160.551 57.1445 160.699 56.7383 160.793 56.2773C160.895 55.8164 160.945 55.3203 160.945 54.7891V54.543C160.945 54.0273 160.895 53.543 160.793 53.0898C160.699 52.6289 160.547 52.2227 160.336 51.8711C160.133 51.5117 159.863 51.2305 159.527 51.0273C159.191 50.8242 158.785 50.7227 158.309 50.7227C157.832 50.7227 157.426 50.8242 157.09 51.0273C156.762 51.2305 156.492 51.5117 156.281 51.8711C156.078 52.2227 155.93 52.6289 155.836 53.0898C155.742 53.543 155.695 54.0273 155.695 54.543ZM173.906 57.9648V48.3203H177.281V61H174.105L173.906 57.9648ZM174.281 55.3633L175.277 55.3398C175.277 56.1836 175.18 56.9688 174.984 57.6953C174.789 58.4141 174.496 59.0391 174.105 59.5703C173.715 60.0938 173.223 60.5039 172.629 60.8008C172.035 61.0898 171.336 61.2344 170.531 61.2344C169.914 61.2344 169.344 61.1484 168.82 60.9766C168.305 60.7969 167.859 60.5195 167.484 60.1445C167.117 59.7617 166.828 59.2734 166.617 58.6797C166.414 58.0781 166.312 57.3555 166.312 56.5117V48.3203H169.688V56.5352C169.688 56.9102 169.73 57.2266 169.816 57.4844C169.91 57.7422 170.039 57.9531 170.203 58.1172C170.367 58.2812 170.559 58.3984 170.777 58.4688C171.004 58.5391 171.254 58.5742 171.527 58.5742C172.223 58.5742 172.77 58.4336 173.168 58.1523C173.574 57.8711 173.859 57.4883 174.023 57.0039C174.195 56.5117 174.281 55.9648 174.281 55.3633ZM186.07 48.3203V50.7109H178.688V48.3203H186.07ZM180.516 45.1914H183.891V57.1797C183.891 57.5469 183.938 57.8281 184.031 58.0234C184.133 58.2188 184.281 58.3555 184.477 58.4336C184.672 58.5039 184.918 58.5391 185.215 58.5391C185.426 58.5391 185.613 58.5312 185.777 58.5156C185.949 58.4922 186.094 58.4688 186.211 58.4453L186.223 60.9297C185.934 61.0234 185.621 61.0977 185.285 61.1523C184.949 61.207 184.578 61.2344 184.172 61.2344C183.43 61.2344 182.781 61.1133 182.227 60.8711C181.68 60.6211 181.258 60.2227 180.961 59.6758C180.664 59.1289 180.516 58.4102 180.516 57.5195V45.1914ZM193.828 61.2344C192.844 61.2344 191.961 61.0781 191.18 60.7656C190.398 60.4453 189.734 60.0039 189.188 59.4414C188.648 58.8789 188.234 58.2266 187.945 57.4844C187.656 56.7344 187.512 55.9375 187.512 55.0938V54.625C187.512 53.6641 187.648 52.7852 187.922 51.9883C188.195 51.1914 188.586 50.5 189.094 49.9141C189.609 49.3281 190.234 48.8789 190.969 48.5664C191.703 48.2461 192.531 48.0859 193.453 48.0859C194.352 48.0859 195.148 48.2344 195.844 48.5312C196.539 48.8281 197.121 49.25 197.59 49.7969C198.066 50.3438 198.426 51 198.668 51.7656C198.91 52.5234 199.031 53.3672 199.031 54.2969V55.7031H188.953V53.4531H195.715V53.1953C195.715 52.7266 195.629 52.3086 195.457 51.9414C195.293 51.5664 195.043 51.2695 194.707 51.0508C194.371 50.832 193.941 50.7227 193.418 50.7227C192.973 50.7227 192.59 50.8203 192.27 51.0156C191.949 51.2109 191.688 51.4844 191.484 51.8359C191.289 52.1875 191.141 52.6016 191.039 53.0781C190.945 53.5469 190.898 54.0625 190.898 54.625V55.0938C190.898 55.6016 190.969 56.0703 191.109 56.5C191.258 56.9297 191.465 57.3008 191.73 57.6133C192.004 57.9258 192.332 58.168 192.715 58.3398C193.105 58.5117 193.547 58.5977 194.039 58.5977C194.648 58.5977 195.215 58.4805 195.738 58.2461C196.27 58.0039 196.727 57.6406 197.109 57.1562L198.75 58.9375C198.484 59.3203 198.121 59.6875 197.66 60.0391C197.207 60.3906 196.66 60.6797 196.02 60.9062C195.379 61.125 194.648 61.2344 193.828 61.2344ZM207.809 57.4961C207.809 57.2539 207.738 57.0352 207.598 56.8398C207.457 56.6445 207.195 56.4648 206.812 56.3008C206.438 56.1289 205.895 55.9727 205.184 55.832C204.543 55.6914 203.945 55.5156 203.391 55.3047C202.844 55.0859 202.367 54.8242 201.961 54.5195C201.562 54.2148 201.25 53.8555 201.023 53.4414C200.797 53.0195 200.684 52.5391 200.684 52C200.684 51.4688 200.797 50.9688 201.023 50.5C201.258 50.0312 201.59 49.6172 202.02 49.2578C202.457 48.8906 202.988 48.6055 203.613 48.4023C204.246 48.1914 204.957 48.0859 205.746 48.0859C206.848 48.0859 207.793 48.2617 208.582 48.6133C209.379 48.9648 209.988 49.4492 210.41 50.0664C210.84 50.6758 211.055 51.3711 211.055 52.1523H207.68C207.68 51.8242 207.609 51.5312 207.469 51.2734C207.336 51.0078 207.125 50.8008 206.836 50.6523C206.555 50.4961 206.188 50.418 205.734 50.418C205.359 50.418 205.035 50.4844 204.762 50.6172C204.488 50.7422 204.277 50.9141 204.129 51.1328C203.988 51.3438 203.918 51.5781 203.918 51.8359C203.918 52.0312 203.957 52.207 204.035 52.3633C204.121 52.5117 204.258 52.6484 204.445 52.7734C204.633 52.8984 204.875 53.0156 205.172 53.125C205.477 53.2266 205.852 53.3203 206.297 53.4062C207.211 53.5938 208.027 53.8398 208.746 54.1445C209.465 54.4414 210.035 54.8477 210.457 55.3633C210.879 55.8711 211.09 56.5391 211.09 57.3672C211.09 57.9297 210.965 58.4453 210.715 58.9141C210.465 59.3828 210.105 59.793 209.637 60.1445C209.168 60.4883 208.605 60.7578 207.949 60.9531C207.301 61.1406 206.57 61.2344 205.758 61.2344C204.578 61.2344 203.578 61.0234 202.758 60.6016C201.945 60.1797 201.328 59.6445 200.906 58.9961C200.492 58.3398 200.285 57.668 200.285 56.9805H203.484C203.5 57.4414 203.617 57.8125 203.836 58.0938C204.062 58.375 204.348 58.5781 204.691 58.7031C205.043 58.8281 205.422 58.8906 205.828 58.8906C206.266 58.8906 206.629 58.832 206.918 58.7148C207.207 58.5898 207.426 58.4258 207.574 58.2227C207.73 58.0117 207.809 57.7695 207.809 57.4961Z" fill="#888888"/>
<path d="M118.594 98.4219V104.75H101.086V98.4219H118.594ZM103.828 84.875V119H95.6016V84.875H103.828ZM124.125 84.875V119H115.922V84.875H124.125ZM127.992 106.578V106.086C127.992 104.227 128.258 102.516 128.789 100.953C129.32 99.375 130.102 98.0078 131.133 96.8516C132.164 95.6953 133.438 94.7969 134.953 94.1562C136.469 93.5 138.219 93.1719 140.203 93.1719C142.203 93.1719 143.961 93.5 145.477 94.1562C147.008 94.7969 148.289 95.6953 149.32 96.8516C150.352 98.0078 151.133 99.375 151.664 100.953C152.195 102.516 152.461 104.227 152.461 106.086V106.578C152.461 108.422 152.195 110.133 151.664 111.711C151.133 113.273 150.352 114.641 149.32 115.812C148.289 116.969 147.016 117.867 145.5 118.508C143.984 119.148 142.234 119.469 140.25 119.469C138.266 119.469 136.508 119.148 134.977 118.508C133.445 117.867 132.164 116.969 131.133 115.812C130.102 114.641 129.32 113.273 128.789 111.711C128.258 110.133 127.992 108.422 127.992 106.578ZM135.891 106.086V106.578C135.891 107.531 135.961 108.422 136.102 109.25C136.242 110.078 136.477 110.805 136.805 111.43C137.133 112.039 137.578 112.516 138.141 112.859C138.703 113.203 139.406 113.375 140.25 113.375C141.078 113.375 141.766 113.203 142.312 112.859C142.875 112.516 143.32 112.039 143.648 111.43C143.977 110.805 144.211 110.078 144.352 109.25C144.492 108.422 144.562 107.531 144.562 106.578V106.086C144.562 105.164 144.492 104.297 144.352 103.484C144.211 102.656 143.977 101.93 143.648 101.305C143.32 100.664 142.875 100.164 142.312 99.8047C141.75 99.4453 141.047 99.2656 140.203 99.2656C139.375 99.2656 138.68 99.4453 138.117 99.8047C137.57 100.164 137.133 100.664 136.805 101.305C136.477 101.93 136.242 102.656 136.102 103.484C135.961 104.297 135.891 105.164 135.891 106.086ZM163.688 111.453L168.375 93.6406H173.32L171.562 102.57L166.922 119H162.961L163.688 111.453ZM161.836 93.6406L164.742 111.312L165.07 119H160.266L154.266 93.6406H161.836ZM177.492 110.938L180.422 93.6406H187.992L182.039 119H177.234L177.492 110.938ZM173.883 93.6406L178.617 111.406L179.344 119H175.336L170.789 102.617L169.102 93.6406H173.883ZM218.297 84.875V119H210.07V84.875H218.297ZM228.562 84.875V91.2266H200.039V84.875H228.562ZM225.773 106.578V106.086C225.773 104.227 226.039 102.516 226.57 100.953C227.102 99.375 227.883 98.0078 228.914 96.8516C229.945 95.6953 231.219 94.7969 232.734 94.1562C234.25 93.5 236 93.1719 237.984 93.1719C239.984 93.1719 241.742 93.5 243.258 94.1562C244.789 94.7969 246.07 95.6953 247.102 96.8516C248.133 98.0078 248.914 99.375 249.445 100.953C249.977 102.516 250.242 104.227 250.242 106.086V106.578C250.242 108.422 249.977 110.133 249.445 111.711C248.914 113.273 248.133 114.641 247.102 115.812C246.07 116.969 244.797 117.867 243.281 118.508C241.766 119.148 240.016 119.469 238.031 119.469C236.047 119.469 234.289 119.148 232.758 118.508C231.227 117.867 229.945 116.969 228.914 115.812C227.883 114.641 227.102 113.273 226.57 111.711C226.039 110.133 225.773 108.422 225.773 106.578ZM233.672 106.086V106.578C233.672 107.531 233.742 108.422 233.883 109.25C234.023 110.078 234.258 110.805 234.586 111.43C234.914 112.039 235.359 112.516 235.922 112.859C236.484 113.203 237.188 113.375 238.031 113.375C238.859 113.375 239.547 113.203 240.094 112.859C240.656 112.516 241.102 112.039 241.43 111.43C241.758 110.805 241.992 110.078 242.133 109.25C242.273 108.422 242.344 107.531 242.344 106.578V106.086C242.344 105.164 242.273 104.297 242.133 103.484C241.992 102.656 241.758 101.93 241.43 101.305C241.102 100.664 240.656 100.164 240.094 99.8047C239.531 99.4453 238.828 99.2656 237.984 99.2656C237.156 99.2656 236.461 99.4453 235.898 99.8047C235.352 100.164 234.914 100.664 234.586 101.305C234.258 101.93 234.023 102.656 233.883 103.484C233.742 104.297 233.672 105.164 233.672 106.086ZM266.086 84.875H279.516C282.141 84.875 284.422 85.2656 286.359 86.0469C288.297 86.8281 289.789 87.9844 290.836 89.5156C291.898 91.0469 292.43 92.9375 292.43 95.1875C292.43 97.1406 292.125 98.7734 291.516 100.086C290.906 101.398 290.055 102.484 288.961 103.344C287.883 104.188 286.625 104.883 285.188 105.43L282.492 106.953H271.219L271.172 100.602H279.516C280.562 100.602 281.43 100.414 282.117 100.039C282.805 99.6641 283.32 99.1328 283.664 98.4453C284.023 97.7422 284.203 96.9062 284.203 95.9375C284.203 94.9531 284.023 94.1094 283.664 93.4062C283.305 92.7031 282.773 92.1641 282.07 91.7891C281.383 91.4141 280.531 91.2266 279.516 91.2266H274.312V119H266.086V84.875ZM284.766 119L277.219 103.906L285.938 103.859L293.578 118.648V119H284.766ZM311.836 112.836V93.6406H319.758V119H312.352L311.836 112.836ZM312.586 107.68L314.648 107.633C314.648 109.336 314.445 110.914 314.039 112.367C313.633 113.805 313.031 115.055 312.234 116.117C311.453 117.18 310.484 118.008 309.328 118.602C308.188 119.18 306.867 119.469 305.367 119.469C304.117 119.469 302.969 119.297 301.922 118.953C300.891 118.594 300 118.039 299.25 117.289C298.5 116.523 297.914 115.547 297.492 114.359C297.086 113.156 296.883 111.719 296.883 110.047V93.6406H304.781V110.094C304.781 110.656 304.852 111.141 304.992 111.547C305.133 111.953 305.336 112.297 305.602 112.578C305.867 112.844 306.195 113.047 306.586 113.188C306.992 113.312 307.453 113.375 307.969 113.375C309.156 113.375 310.086 113.125 310.758 112.625C311.43 112.125 311.898 111.445 312.164 110.586C312.445 109.727 312.586 108.758 312.586 107.68ZM331.875 99.0547V119H323.977V93.6406H331.383L331.875 99.0547ZM330.938 105.453L329.086 105.5C329.086 103.562 329.32 101.836 329.789 100.32C330.258 98.7891 330.922 97.4922 331.781 96.4297C332.641 95.3672 333.664 94.5625 334.852 94.0156C336.055 93.4531 337.391 93.1719 338.859 93.1719C340.031 93.1719 341.102 93.3438 342.07 93.6875C343.055 94.0312 343.898 94.5859 344.602 95.3516C345.32 96.1172 345.867 97.1328 346.242 98.3984C346.633 99.6484 346.828 101.195 346.828 103.039V119H338.883V103.016C338.883 102 338.742 101.227 338.461 100.695C338.18 100.148 337.773 99.7734 337.242 99.5703C336.711 99.3672 336.062 99.2656 335.297 99.2656C334.484 99.2656 333.797 99.4219 333.234 99.7344C332.672 100.047 332.219 100.484 331.875 101.047C331.547 101.594 331.305 102.242 331.148 102.992C331.008 103.742 330.938 104.562 330.938 105.453ZM363.773 108.195H357.047C357.047 106.82 357.141 105.609 357.328 104.562C357.531 103.5 357.875 102.547 358.359 101.703C358.844 100.859 359.5 100.078 360.328 99.3594C361.062 98.75 361.695 98.1641 362.227 97.6016C362.758 97.0391 363.164 96.4688 363.445 95.8906C363.727 95.3125 363.867 94.6953 363.867 94.0391C363.867 93.2266 363.75 92.5625 363.516 92.0469C363.297 91.5312 362.961 91.1484 362.508 90.8984C362.07 90.6328 361.516 90.5 360.844 90.5C360.297 90.5 359.781 90.6328 359.297 90.8984C358.828 91.1641 358.445 91.5781 358.148 92.1406C357.852 92.6875 357.688 93.4141 357.656 94.3203H349.711C349.758 91.9922 350.273 90.1016 351.258 88.6484C352.258 87.1797 353.586 86.1094 355.242 85.4375C356.914 84.75 358.781 84.4062 360.844 84.4062C363.125 84.4062 365.086 84.7578 366.727 85.4609C368.367 86.1641 369.625 87.2109 370.5 88.6016C371.375 89.9766 371.812 91.6719 371.812 93.6875C371.812 95.0312 371.555 96.2031 371.039 97.2031C370.539 98.1875 369.859 99.1094 369 99.9688C368.156 100.812 367.211 101.719 366.164 102.688C365.258 103.484 364.641 104.297 364.312 105.125C363.984 105.938 363.805 106.961 363.773 108.195ZM356.086 115.32C356.086 114.195 356.492 113.258 357.305 112.508C358.117 111.742 359.172 111.359 360.469 111.359C361.766 111.359 362.82 111.742 363.633 112.508C364.445 113.258 364.852 114.195 364.852 115.32C364.852 116.445 364.445 117.391 363.633 118.156C362.82 118.906 361.766 119.281 360.469 119.281C359.172 119.281 358.117 118.906 357.305 118.156C356.492 117.391 356.086 116.445 356.086 115.32Z" fill="black"/>
<path d="M1134 0H1348C1356.28 0 1363 6.71573 1363 15V148C1363 156.284 1356.28 163 1348 163H1134V0Z" fill="#AB1212"/>
<path d="M1260.62 78.8078C1263.81 78.8078 1266.93 79.7552 1269.59 81.5302C1272.25 83.3052 1274.32 85.8281 1275.54 88.7798C1276.76 91.7315 1277.08 94.9795 1276.46 98.1131C1275.84 101.247 1274.3 104.125 1272.04 106.384C1269.78 108.643 1266.9 110.182 1263.77 110.805C1260.63 111.428 1257.39 111.108 1254.43 109.886C1251.48 108.663 1248.96 106.593 1247.18 103.936C1245.41 101.28 1244.46 98.1565 1244.46 94.9616C1244.46 90.6774 1246.16 86.5686 1249.19 83.5392C1252.22 80.5097 1256.33 78.8078 1260.62 78.8078ZM1260.62 73.4232C1256.36 73.4232 1252.19 74.6864 1248.65 77.0531C1245.11 79.4198 1242.35 82.7836 1240.72 86.7192C1239.09 90.6549 1238.66 94.9855 1239.49 99.1636C1240.32 103.342 1242.37 107.179 1245.39 110.192C1248.4 113.204 1252.24 115.255 1256.41 116.086C1260.59 116.917 1264.92 116.491 1268.86 114.861C1272.79 113.23 1276.16 110.47 1278.52 106.928C1280.89 103.386 1282.15 99.2215 1282.15 94.9616C1282.15 89.2493 1279.88 83.7709 1275.85 79.7317C1271.81 75.6924 1266.33 73.4232 1260.62 73.4232Z" fill="white"/>
<path d="M1274.08 46.4999H1220.23C1218.8 46.4999 1217.43 47.0672 1216.42 48.0771C1215.41 49.0869 1214.85 50.4565 1214.85 51.8845V105.731C1214.85 107.159 1215.41 108.528 1216.42 109.538C1217.43 110.548 1218.8 111.115 1220.23 111.115H1231V105.731H1220.23V68.0383H1279.46V51.8845C1279.46 50.4565 1278.89 49.0869 1277.88 48.0771C1276.87 47.0672 1275.5 46.4999 1274.08 46.4999ZM1220.23 62.6537V51.8845H1274.08V62.6537H1220.23Z" fill="white"/>
<path d="M1255.23 86.8848V103.039L1268.69 94.9617L1255.23 86.8848Z" fill="white"/>
</svg>
