<svg width="1363" height="163" viewBox="0 0 1363 163" fill="none" xmlns="http://www.w3.org/2000/svg">
<path d="M0 15C0 6.71573 6.71573 0 15 0H37V163H15C6.71573 163 0 156.284 0 148V15Z" fill="#424242"/>
<rect width="1097" height="163" transform="translate(37)" fill="#F0F0F0"/>
<path d="M101.906 53.9219L94.3945 51.2383V48.0859L104.602 52.375V54.6367L101.906 53.9219ZM94.3945 56.1719L101.918 53.4297L104.602 52.7852V55.0352L94.3945 59.3242V56.1719ZM119.578 53.5117H115.195L115.172 51.0977H118.852C119.5 51.0977 120.031 51.0156 120.445 50.8516C120.859 50.6797 121.168 50.4336 121.371 50.1133C121.582 49.7852 121.688 49.3867 121.688 48.918C121.688 48.3867 121.586 47.957 121.383 47.6289C121.188 47.3008 120.879 47.0625 120.457 46.9141C120.043 46.7656 119.508 46.6914 118.852 46.6914H116.414V61H112.898V43.9375H118.852C119.844 43.9375 120.73 44.0312 121.512 44.2188C122.301 44.4062 122.969 44.6914 123.516 45.0742C124.062 45.457 124.48 45.9414 124.77 46.5273C125.059 47.1055 125.203 47.793 125.203 48.5898C125.203 49.293 125.043 49.9414 124.723 50.5352C124.41 51.1289 123.914 51.6133 123.234 51.9883C122.562 52.3633 121.684 52.5703 120.598 52.6094L119.578 53.5117ZM119.426 61H114.234L115.605 58.2578H119.426C120.043 58.2578 120.547 58.1602 120.938 57.9648C121.328 57.7617 121.617 57.4883 121.805 57.1445C121.992 56.8008 122.086 56.4062 122.086 55.9609C122.086 55.4609 122 55.0273 121.828 54.6602C121.664 54.293 121.398 54.0117 121.031 53.8164C120.664 53.6133 120.18 53.5117 119.578 53.5117H116.191L116.215 51.0977H120.434L121.242 52.0469C122.281 52.0312 123.117 52.2148 123.75 52.5977C124.391 52.9727 124.855 53.4609 125.145 54.0625C125.441 54.6641 125.59 55.3086 125.59 55.9961C125.59 57.0898 125.352 58.0117 124.875 58.7617C124.398 59.5039 123.699 60.0625 122.777 60.4375C121.863 60.8125 120.746 61 119.426 61ZM134.672 52.3516V55H128.051V52.3516H134.672ZM137.695 43.9375H144.059C145.363 43.9375 146.484 44.1328 147.422 44.5234C148.367 44.9141 149.094 45.4922 149.602 46.2578C150.109 47.0234 150.363 47.9648 150.363 49.082C150.363 49.9961 150.207 50.7812 149.895 51.4375C149.59 52.0859 149.156 52.6289 148.594 53.0664C148.039 53.4961 147.387 53.8398 146.637 54.0977L145.523 54.6836H139.992L139.969 51.9414H144.082C144.699 51.9414 145.211 51.832 145.617 51.6133C146.023 51.3945 146.328 51.0898 146.531 50.6992C146.742 50.3086 146.848 49.8555 146.848 49.3398C146.848 48.793 146.746 48.3203 146.543 47.9219C146.34 47.5234 146.031 47.2188 145.617 47.0078C145.203 46.7969 144.684 46.6914 144.059 46.6914H141.211V61H137.695V43.9375ZM147.234 61L143.344 53.3945L147.059 53.3711L150.996 60.8359V61H147.234ZM152.32 54.7891V54.543C152.32 53.6133 152.453 52.7578 152.719 51.9766C152.984 51.1875 153.371 50.5039 153.879 49.9258C154.387 49.3477 155.012 48.8984 155.754 48.5781C156.496 48.25 157.348 48.0859 158.309 48.0859C159.27 48.0859 160.125 48.25 160.875 48.5781C161.625 48.8984 162.254 49.3477 162.762 49.9258C163.277 50.5039 163.668 51.1875 163.934 51.9766C164.199 52.7578 164.332 53.6133 164.332 54.543V54.7891C164.332 55.7109 164.199 56.5664 163.934 57.3555C163.668 58.1367 163.277 58.8203 162.762 59.4062C162.254 59.9844 161.629 60.4336 160.887 60.7539C160.145 61.0742 159.293 61.2344 158.332 61.2344C157.371 61.2344 156.516 61.0742 155.766 60.7539C155.023 60.4336 154.395 59.9844 153.879 59.4062C153.371 58.8203 152.984 58.1367 152.719 57.3555C152.453 56.5664 152.32 55.7109 152.32 54.7891ZM155.695 54.543V54.7891C155.695 55.3203 155.742 55.8164 155.836 56.2773C155.93 56.7383 156.078 57.1445 156.281 57.4961C156.492 57.8398 156.766 58.1094 157.102 58.3047C157.438 58.5 157.848 58.5977 158.332 58.5977C158.801 58.5977 159.203 58.5 159.539 58.3047C159.875 58.1094 160.145 57.8398 160.348 57.4961C160.551 57.1445 160.699 56.7383 160.793 56.2773C160.895 55.8164 160.945 55.3203 160.945 54.7891V54.543C160.945 54.0273 160.895 53.543 160.793 53.0898C160.699 52.6289 160.547 52.2227 160.336 51.8711C160.133 51.5117 159.863 51.2305 159.527 51.0273C159.191 50.8242 158.785 50.7227 158.309 50.7227C157.832 50.7227 157.426 50.8242 157.09 51.0273C156.762 51.2305 156.492 51.5117 156.281 51.8711C156.078 52.2227 155.93 52.6289 155.836 53.0898C155.742 53.543 155.695 54.0273 155.695 54.543ZM173.906 57.9648V48.3203H177.281V61H174.105L173.906 57.9648ZM174.281 55.3633L175.277 55.3398C175.277 56.1836 175.18 56.9688 174.984 57.6953C174.789 58.4141 174.496 59.0391 174.105 59.5703C173.715 60.0938 173.223 60.5039 172.629 60.8008C172.035 61.0898 171.336 61.2344 170.531 61.2344C169.914 61.2344 169.344 61.1484 168.82 60.9766C168.305 60.7969 167.859 60.5195 167.484 60.1445C167.117 59.7617 166.828 59.2734 166.617 58.6797C166.414 58.0781 166.312 57.3555 166.312 56.5117V48.3203H169.688V56.5352C169.688 56.9102 169.73 57.2266 169.816 57.4844C169.91 57.7422 170.039 57.9531 170.203 58.1172C170.367 58.2812 170.559 58.3984 170.777 58.4688C171.004 58.5391 171.254 58.5742 171.527 58.5742C172.223 58.5742 172.77 58.4336 173.168 58.1523C173.574 57.8711 173.859 57.4883 174.023 57.0039C174.195 56.5117 174.281 55.9648 174.281 55.3633ZM186.07 48.3203V50.7109H178.688V48.3203H186.07ZM180.516 45.1914H183.891V57.1797C183.891 57.5469 183.938 57.8281 184.031 58.0234C184.133 58.2188 184.281 58.3555 184.477 58.4336C184.672 58.5039 184.918 58.5391 185.215 58.5391C185.426 58.5391 185.613 58.5312 185.777 58.5156C185.949 58.4922 186.094 58.4688 186.211 58.4453L186.223 60.9297C185.934 61.0234 185.621 61.0977 185.285 61.1523C184.949 61.207 184.578 61.2344 184.172 61.2344C183.43 61.2344 182.781 61.1133 182.227 60.8711C181.68 60.6211 181.258 60.2227 180.961 59.6758C180.664 59.1289 180.516 58.4102 180.516 57.5195V45.1914ZM193.828 61.2344C192.844 61.2344 191.961 61.0781 191.18 60.7656C190.398 60.4453 189.734 60.0039 189.188 59.4414C188.648 58.8789 188.234 58.2266 187.945 57.4844C187.656 56.7344 187.512 55.9375 187.512 55.0938V54.625C187.512 53.6641 187.648 52.7852 187.922 51.9883C188.195 51.1914 188.586 50.5 189.094 49.9141C189.609 49.3281 190.234 48.8789 190.969 48.5664C191.703 48.2461 192.531 48.0859 193.453 48.0859C194.352 48.0859 195.148 48.2344 195.844 48.5312C196.539 48.8281 197.121 49.25 197.59 49.7969C198.066 50.3438 198.426 51 198.668 51.7656C198.91 52.5234 199.031 53.3672 199.031 54.2969V55.7031H188.953V53.4531H195.715V53.1953C195.715 52.7266 195.629 52.3086 195.457 51.9414C195.293 51.5664 195.043 51.2695 194.707 51.0508C194.371 50.832 193.941 50.7227 193.418 50.7227C192.973 50.7227 192.59 50.8203 192.27 51.0156C191.949 51.2109 191.688 51.4844 191.484 51.8359C191.289 52.1875 191.141 52.6016 191.039 53.0781C190.945 53.5469 190.898 54.0625 190.898 54.625V55.0938C190.898 55.6016 190.969 56.0703 191.109 56.5C191.258 56.9297 191.465 57.3008 191.73 57.6133C192.004 57.9258 192.332 58.168 192.715 58.3398C193.105 58.5117 193.547 58.5977 194.039 58.5977C194.648 58.5977 195.215 58.4805 195.738 58.2461C196.27 58.0039 196.727 57.6406 197.109 57.1562L198.75 58.9375C198.484 59.3203 198.121 59.6875 197.66 60.0391C197.207 60.3906 196.66 60.6797 196.02 60.9062C195.379 61.125 194.648 61.2344 193.828 61.2344ZM207.809 57.4961C207.809 57.2539 207.738 57.0352 207.598 56.8398C207.457 56.6445 207.195 56.4648 206.812 56.3008C206.438 56.1289 205.895 55.9727 205.184 55.832C204.543 55.6914 203.945 55.5156 203.391 55.3047C202.844 55.0859 202.367 54.8242 201.961 54.5195C201.562 54.2148 201.25 53.8555 201.023 53.4414C200.797 53.0195 200.684 52.5391 200.684 52C200.684 51.4688 200.797 50.9688 201.023 50.5C201.258 50.0312 201.59 49.6172 202.02 49.2578C202.457 48.8906 202.988 48.6055 203.613 48.4023C204.246 48.1914 204.957 48.0859 205.746 48.0859C206.848 48.0859 207.793 48.2617 208.582 48.6133C209.379 48.9648 209.988 49.4492 210.41 50.0664C210.84 50.6758 211.055 51.3711 211.055 52.1523H207.68C207.68 51.8242 207.609 51.5312 207.469 51.2734C207.336 51.0078 207.125 50.8008 206.836 50.6523C206.555 50.4961 206.188 50.418 205.734 50.418C205.359 50.418 205.035 50.4844 204.762 50.6172C204.488 50.7422 204.277 50.9141 204.129 51.1328C203.988 51.3438 203.918 51.5781 203.918 51.8359C203.918 52.0312 203.957 52.207 204.035 52.3633C204.121 52.5117 204.258 52.6484 204.445 52.7734C204.633 52.8984 204.875 53.0156 205.172 53.125C205.477 53.2266 205.852 53.3203 206.297 53.4062C207.211 53.5938 208.027 53.8398 208.746 54.1445C209.465 54.4414 210.035 54.8477 210.457 55.3633C210.879 55.8711 211.09 56.5391 211.09 57.3672C211.09 57.9297 210.965 58.4453 210.715 58.9141C210.465 59.3828 210.105 59.793 209.637 60.1445C209.168 60.4883 208.605 60.7578 207.949 60.9531C207.301 61.1406 206.57 61.2344 205.758 61.2344C204.578 61.2344 203.578 61.0234 202.758 60.6016C201.945 60.1797 201.328 59.6445 200.906 58.9961C200.492 58.3398 200.285 57.668 200.285 56.9805H203.484C203.5 57.4414 203.617 57.8125 203.836 58.0938C204.062 58.375 204.348 58.5781 204.691 58.7031C205.043 58.8281 205.422 58.8906 205.828 58.8906C206.266 58.8906 206.629 58.832 206.918 58.7148C207.207 58.5898 207.426 58.4258 207.574 58.2227C207.73 58.0117 207.809 57.7695 207.809 57.4961Z" fill="#888888"/>
<path d="M112.125 84.875V119H103.898V84.875H112.125ZM122.391 84.875V91.2266H93.8672V84.875H122.391ZM135.68 119.469C133.617 119.469 131.773 119.148 130.148 118.508C128.523 117.852 127.148 116.953 126.023 115.812C124.914 114.672 124.062 113.359 123.469 111.875C122.891 110.391 122.602 108.82 122.602 107.164V106.273C122.602 104.414 122.859 102.695 123.375 101.117C123.891 99.5234 124.656 98.1328 125.672 96.9453C126.688 95.7578 127.961 94.8359 129.492 94.1797C131.023 93.5078 132.805 93.1719 134.836 93.1719C136.633 93.1719 138.242 93.4609 139.664 94.0391C141.086 94.6172 142.289 95.4453 143.273 96.5234C144.273 97.6016 145.031 98.9062 145.547 100.438C146.078 101.969 146.344 103.688 146.344 105.594V108.805H125.625V103.859H138.633V103.25C138.648 102.406 138.5 101.688 138.188 101.094C137.891 100.5 137.453 100.047 136.875 99.7344C136.297 99.4219 135.594 99.2656 134.766 99.2656C133.906 99.2656 133.195 99.4531 132.633 99.8281C132.086 100.203 131.656 100.719 131.344 101.375C131.047 102.016 130.836 102.758 130.711 103.602C130.586 104.445 130.523 105.336 130.523 106.273V107.164C130.523 108.102 130.648 108.953 130.898 109.719C131.164 110.484 131.539 111.141 132.023 111.688C132.523 112.219 133.117 112.633 133.805 112.93C134.508 113.227 135.305 113.375 136.195 113.375C137.273 113.375 138.336 113.172 139.383 112.766C140.43 112.359 141.328 111.688 142.078 110.75L145.664 115.016C145.148 115.75 144.414 116.461 143.461 117.148C142.523 117.836 141.398 118.398 140.086 118.836C138.773 119.258 137.305 119.469 135.68 119.469ZM160.266 113.375C161 113.375 161.625 113.242 162.141 112.977C162.672 112.695 163.07 112.305 163.336 111.805C163.617 111.289 163.75 110.672 163.734 109.953H171.164C171.18 111.859 170.711 113.531 169.758 114.969C168.82 116.391 167.539 117.5 165.914 118.297C164.305 119.078 162.484 119.469 160.453 119.469C158.469 119.469 156.734 119.148 155.25 118.508C153.766 117.852 152.523 116.945 151.523 115.789C150.539 114.617 149.797 113.25 149.297 111.688C148.812 110.125 148.57 108.43 148.57 106.602V106.062C148.57 104.234 148.812 102.539 149.297 100.977C149.797 99.3984 150.539 98.0312 151.523 96.875C152.523 95.7031 153.758 94.7969 155.227 94.1562C156.711 93.5 158.438 93.1719 160.406 93.1719C162.516 93.1719 164.375 93.5703 165.984 94.3672C167.609 95.1641 168.883 96.3203 169.805 97.8359C170.727 99.3516 171.18 101.188 171.164 103.344H163.734C163.75 102.578 163.633 101.891 163.383 101.281C163.133 100.672 162.742 100.188 162.211 99.8281C161.695 99.4531 161.031 99.2656 160.219 99.2656C159.406 99.2656 158.75 99.4453 158.25 99.8047C157.75 100.164 157.367 100.664 157.102 101.305C156.852 101.93 156.68 102.648 156.586 103.461C156.508 104.273 156.469 105.141 156.469 106.062V106.602C156.469 107.539 156.508 108.422 156.586 109.25C156.68 110.062 156.859 110.781 157.125 111.406C157.391 112.016 157.773 112.5 158.273 112.859C158.773 113.203 159.438 113.375 160.266 113.375ZM182.273 83V119H174.375V83H182.273ZM181.336 105.453L179.484 105.5C179.484 103.719 179.703 102.078 180.141 100.578C180.578 99.0781 181.203 97.7734 182.016 96.6641C182.828 95.5547 183.805 94.6953 184.945 94.0859C186.086 93.4766 187.352 93.1719 188.742 93.1719C189.992 93.1719 191.133 93.3516 192.164 93.7109C193.211 94.0703 194.109 94.6484 194.859 95.4453C195.625 96.2422 196.211 97.2812 196.617 98.5625C197.039 99.8438 197.25 101.406 197.25 103.25V119H189.305V103.203C189.305 102.172 189.156 101.375 188.859 100.812C188.578 100.234 188.172 99.8359 187.641 99.6172C187.109 99.3828 186.461 99.2656 185.695 99.2656C184.773 99.2656 184.023 99.4219 183.445 99.7344C182.867 100.047 182.422 100.484 182.109 101.047C181.812 101.594 181.609 102.242 181.5 102.992C181.391 103.742 181.336 104.562 181.336 105.453ZM231.539 109.93C231.539 109.398 231.461 108.922 231.305 108.5C231.148 108.062 230.859 107.656 230.438 107.281C230.016 106.906 229.406 106.531 228.609 106.156C227.828 105.766 226.797 105.359 225.516 104.938C224.016 104.438 222.57 103.875 221.18 103.25C219.789 102.609 218.547 101.867 217.453 101.023C216.359 100.164 215.492 99.1641 214.852 98.0234C214.211 96.8672 213.891 95.5234 213.891 93.9922C213.891 92.5234 214.219 91.2031 214.875 90.0312C215.531 88.8438 216.445 87.8359 217.617 87.0078C218.805 86.1641 220.195 85.5234 221.789 85.0859C223.383 84.6328 225.125 84.4062 227.016 84.4062C229.516 84.4062 231.719 84.8438 233.625 85.7188C235.547 86.5781 237.047 87.8047 238.125 89.3984C239.219 90.9766 239.766 92.8438 239.766 95H231.586C231.586 94.1406 231.406 93.3828 231.047 92.7266C230.703 92.0703 230.18 91.5547 229.477 91.1797C228.773 90.8047 227.891 90.6172 226.828 90.6172C225.797 90.6172 224.93 90.7734 224.227 91.0859C223.523 91.3984 222.992 91.8203 222.633 92.3516C222.273 92.8672 222.094 93.4375 222.094 94.0625C222.094 94.5781 222.234 95.0469 222.516 95.4688C222.812 95.875 223.227 96.2578 223.758 96.6172C224.305 96.9766 224.961 97.3203 225.727 97.6484C226.508 97.9766 227.383 98.2969 228.352 98.6094C230.164 99.1875 231.773 99.8359 233.18 100.555C234.602 101.258 235.797 102.062 236.766 102.969C237.75 103.859 238.492 104.875 238.992 106.016C239.508 107.156 239.766 108.445 239.766 109.883C239.766 111.414 239.469 112.773 238.875 113.961C238.281 115.148 237.43 116.156 236.32 116.984C235.211 117.797 233.883 118.414 232.336 118.836C230.789 119.258 229.062 119.469 227.156 119.469C225.406 119.469 223.68 119.25 221.977 118.812C220.289 118.359 218.758 117.672 217.383 116.75C216.008 115.812 214.906 114.617 214.078 113.164C213.266 111.695 212.859 109.953 212.859 107.938H221.109C221.109 108.938 221.242 109.781 221.508 110.469C221.773 111.156 222.164 111.711 222.68 112.133C223.195 112.539 223.828 112.836 224.578 113.023C225.328 113.195 226.188 113.281 227.156 113.281C228.203 113.281 229.047 113.133 229.688 112.836C230.328 112.523 230.797 112.117 231.094 111.617C231.391 111.102 231.539 110.539 231.539 109.93ZM256.992 93.6406V99.125H241.711V93.6406H256.992ZM244.922 87.3359H252.82V110.727C252.82 111.398 252.898 111.922 253.055 112.297C253.211 112.656 253.477 112.914 253.852 113.07C254.242 113.211 254.758 113.281 255.398 113.281C255.852 113.281 256.227 113.273 256.523 113.258C256.82 113.227 257.102 113.188 257.367 113.141V118.789C256.695 119.008 255.992 119.172 255.258 119.281C254.523 119.406 253.742 119.469 252.914 119.469C251.227 119.469 249.781 119.203 248.578 118.672C247.391 118.141 246.484 117.305 245.859 116.164C245.234 115.023 244.922 113.539 244.922 111.711V87.3359ZM273.305 112.625V102.172C273.305 101.453 273.203 100.836 273 100.32C272.797 99.8047 272.477 99.4062 272.039 99.125C271.602 98.8281 271.016 98.6797 270.281 98.6797C269.688 98.6797 269.18 98.7812 268.758 98.9844C268.336 99.1875 268.016 99.4922 267.797 99.8984C267.578 100.305 267.469 100.82 267.469 101.445H259.57C259.57 100.273 259.828 99.1875 260.344 98.1875C260.875 97.1719 261.625 96.2891 262.594 95.5391C263.578 94.7891 264.75 94.2109 266.109 93.8047C267.484 93.3828 269.016 93.1719 270.703 93.1719C272.719 93.1719 274.516 93.5078 276.094 94.1797C277.688 94.8516 278.945 95.8594 279.867 97.2031C280.789 98.5312 281.25 100.203 281.25 102.219V112.602C281.25 114.258 281.344 115.516 281.531 116.375C281.719 117.219 281.984 117.961 282.328 118.602V119H274.406C274.031 118.219 273.75 117.266 273.562 116.141C273.391 115 273.305 113.828 273.305 112.625ZM274.266 103.508L274.312 107.727H270.82C270.086 107.727 269.461 107.828 268.945 108.031C268.445 108.234 268.039 108.516 267.727 108.875C267.43 109.219 267.211 109.609 267.07 110.047C266.945 110.484 266.883 110.945 266.883 111.43C266.883 111.898 266.992 112.32 267.211 112.695C267.445 113.055 267.758 113.336 268.148 113.539C268.539 113.742 268.977 113.844 269.461 113.844C270.336 113.844 271.078 113.68 271.688 113.352C272.312 113.008 272.789 112.594 273.117 112.109C273.445 111.625 273.609 111.172 273.609 110.75L275.344 113.984C275.031 114.609 274.672 115.242 274.266 115.883C273.875 116.523 273.383 117.117 272.789 117.664C272.211 118.195 271.5 118.633 270.656 118.977C269.812 119.305 268.789 119.469 267.586 119.469C266.023 119.469 264.586 119.148 263.273 118.508C261.977 117.867 260.938 116.977 260.156 115.836C259.375 114.68 258.984 113.352 258.984 111.852C258.984 110.539 259.219 109.367 259.688 108.336C260.172 107.305 260.898 106.43 261.867 105.711C262.836 104.992 264.07 104.445 265.57 104.07C267.07 103.695 268.836 103.508 270.867 103.508H274.266ZM296.344 113.375C297.078 113.375 297.703 113.242 298.219 112.977C298.75 112.695 299.148 112.305 299.414 111.805C299.695 111.289 299.828 110.672 299.812 109.953H307.242C307.258 111.859 306.789 113.531 305.836 114.969C304.898 116.391 303.617 117.5 301.992 118.297C300.383 119.078 298.562 119.469 296.531 119.469C294.547 119.469 292.812 119.148 291.328 118.508C289.844 117.852 288.602 116.945 287.602 115.789C286.617 114.617 285.875 113.25 285.375 111.688C284.891 110.125 284.648 108.43 284.648 106.602V106.062C284.648 104.234 284.891 102.539 285.375 100.977C285.875 99.3984 286.617 98.0312 287.602 96.875C288.602 95.7031 289.836 94.7969 291.305 94.1562C292.789 93.5 294.516 93.1719 296.484 93.1719C298.594 93.1719 300.453 93.5703 302.062 94.3672C303.688 95.1641 304.961 96.3203 305.883 97.8359C306.805 99.3516 307.258 101.188 307.242 103.344H299.812C299.828 102.578 299.711 101.891 299.461 101.281C299.211 100.672 298.82 100.188 298.289 99.8281C297.773 99.4531 297.109 99.2656 296.297 99.2656C295.484 99.2656 294.828 99.4453 294.328 99.8047C293.828 100.164 293.445 100.664 293.18 101.305C292.93 101.93 292.758 102.648 292.664 103.461C292.586 104.273 292.547 105.141 292.547 106.062V106.602C292.547 107.539 292.586 108.422 292.664 109.25C292.758 110.062 292.938 110.781 293.203 111.406C293.469 112.016 293.852 112.5 294.352 112.859C294.852 113.203 295.516 113.375 296.344 113.375ZM318.586 82.9766V119H310.688V82.9766H318.586ZM334.805 93.6406L323.789 106.555L318.023 112.32L314.578 107.305L319.383 101.047L325.336 93.6406H334.805ZM326.344 119L319.57 107.445L325.406 103.297L335.391 119H326.344Z" fill="black"/>
<path d="M1134 0H1348C1356.28 0 1363 6.71573 1363 15V148C1363 156.284 1356.28 163 1348 163H1134V0Z" fill="#AB1212"/>
<path fill-rule="evenodd" clip-rule="evenodd" d="M1218.75 53C1218.62 53 1218.49 53.0527 1218.4 53.1464C1218.3 53.2402 1218.25 53.3674 1218.25 53.5V109.5C1218.25 109.633 1218.3 109.76 1218.4 109.854C1218.49 109.947 1218.62 110 1218.75 110H1278.25C1278.38 110 1278.51 109.947 1278.6 109.854C1278.7 109.76 1278.75 109.633 1278.75 109.5V64C1278.75 63.8674 1278.7 63.7402 1278.6 63.6464C1278.51 63.5527 1278.38 63.5 1278.25 63.5H1248.5C1247.61 63.5 1246.77 63.1045 1246.2 62.4206L1238.34 53H1218.75ZM1214.15 48.9038C1215.37 47.6848 1217.03 47 1218.75 47H1239.75C1240.64 47 1241.48 47.3955 1242.05 48.0794L1249.91 57.5H1278.25C1279.97 57.5 1281.63 58.1848 1282.85 59.4038C1284.07 60.6228 1284.75 62.2761 1284.75 64V109.5C1284.75 111.224 1284.07 112.877 1282.85 114.096C1281.63 115.315 1279.97 116 1278.25 116H1218.75C1217.03 116 1215.37 115.315 1214.15 114.096C1212.93 112.877 1212.25 111.224 1212.25 109.5V53.5C1212.25 51.7761 1212.93 50.1228 1214.15 48.9038Z" fill="white"/>
<path fill-rule="evenodd" clip-rule="evenodd" d="M1243.97 75.5251C1245.34 76.892 1245.34 79.108 1243.97 80.4749L1237.7 86.75L1243.97 93.0251C1245.34 94.392 1245.34 96.608 1243.97 97.9749C1242.61 99.3417 1240.39 99.3417 1239.03 97.9749L1230.28 89.2249C1228.91 87.858 1228.91 85.642 1230.28 84.2751L1239.03 75.5251C1240.39 74.1583 1242.61 74.1583 1243.97 75.5251Z" fill="white"/>
<path fill-rule="evenodd" clip-rule="evenodd" d="M1252.28 97.9749C1250.91 96.608 1250.91 94.392 1252.28 93.0251L1258.55 86.75L1252.28 80.4749C1250.91 79.108 1250.91 76.892 1252.28 75.5251C1253.64 74.1583 1255.86 74.1583 1257.22 75.5251L1265.97 84.2751C1267.34 85.642 1267.34 87.858 1265.97 89.2249L1257.22 97.9749C1255.86 99.3417 1253.64 99.3417 1252.28 97.9749Z" fill="white"/>
</svg>
