<svg width="1363" height="163" viewBox="0 0 1363 163" fill="none" xmlns="http://www.w3.org/2000/svg">
<path d="M0 15C0 6.71573 6.71573 0 15 0H37V163H15C6.71573 163 0 156.284 0 148V15Z" fill="#424242"/>
<rect width="1097" height="163" transform="translate(37)" fill="#F0F0F0"/>
<path d="M101.906 53.9219L94.3945 51.2383V48.0859L104.602 52.375V54.6367L101.906 53.9219ZM94.3945 56.1719L101.918 53.4297L104.602 52.7852V55.0352L94.3945 59.3242V56.1719ZM119.578 53.5117H115.195L115.172 51.0977H118.852C119.5 51.0977 120.031 51.0156 120.445 50.8516C120.859 50.6797 121.168 50.4336 121.371 50.1133C121.582 49.7852 121.688 49.3867 121.688 48.918C121.688 48.3867 121.586 47.957 121.383 47.6289C121.188 47.3008 120.879 47.0625 120.457 46.9141C120.043 46.7656 119.508 46.6914 118.852 46.6914H116.414V61H112.898V43.9375H118.852C119.844 43.9375 120.73 44.0312 121.512 44.2188C122.301 44.4062 122.969 44.6914 123.516 45.0742C124.062 45.457 124.48 45.9414 124.77 46.5273C125.059 47.1055 125.203 47.793 125.203 48.5898C125.203 49.293 125.043 49.9414 124.723 50.5352C124.41 51.1289 123.914 51.6133 123.234 51.9883C122.562 52.3633 121.684 52.5703 120.598 52.6094L119.578 53.5117ZM119.426 61H114.234L115.605 58.2578H119.426C120.043 58.2578 120.547 58.1602 120.938 57.9648C121.328 57.7617 121.617 57.4883 121.805 57.1445C121.992 56.8008 122.086 56.4062 122.086 55.9609C122.086 55.4609 122 55.0273 121.828 54.6602C121.664 54.293 121.398 54.0117 121.031 53.8164C120.664 53.6133 120.18 53.5117 119.578 53.5117H116.191L116.215 51.0977H120.434L121.242 52.0469C122.281 52.0312 123.117 52.2148 123.75 52.5977C124.391 52.9727 124.855 53.4609 125.145 54.0625C125.441 54.6641 125.59 55.3086 125.59 55.9961C125.59 57.0898 125.352 58.0117 124.875 58.7617C124.398 59.5039 123.699 60.0625 122.777 60.4375C121.863 60.8125 120.746 61 119.426 61ZM134.672 52.3516V55H128.051V52.3516H134.672ZM137.695 43.9375H144.059C145.363 43.9375 146.484 44.1328 147.422 44.5234C148.367 44.9141 149.094 45.4922 149.602 46.2578C150.109 47.0234 150.363 47.9648 150.363 49.082C150.363 49.9961 150.207 50.7812 149.895 51.4375C149.59 52.0859 149.156 52.6289 148.594 53.0664C148.039 53.4961 147.387 53.8398 146.637 54.0977L145.523 54.6836H139.992L139.969 51.9414H144.082C144.699 51.9414 145.211 51.832 145.617 51.6133C146.023 51.3945 146.328 51.0898 146.531 50.6992C146.742 50.3086 146.848 49.8555 146.848 49.3398C146.848 48.793 146.746 48.3203 146.543 47.9219C146.34 47.5234 146.031 47.2188 145.617 47.0078C145.203 46.7969 144.684 46.6914 144.059 46.6914H141.211V61H137.695V43.9375ZM147.234 61L143.344 53.3945L147.059 53.3711L150.996 60.8359V61H147.234ZM152.32 54.7891V54.543C152.32 53.6133 152.453 52.7578 152.719 51.9766C152.984 51.1875 153.371 50.5039 153.879 49.9258C154.387 49.3477 155.012 48.8984 155.754 48.5781C156.496 48.25 157.348 48.0859 158.309 48.0859C159.27 48.0859 160.125 48.25 160.875 48.5781C161.625 48.8984 162.254 49.3477 162.762 49.9258C163.277 50.5039 163.668 51.1875 163.934 51.9766C164.199 52.7578 164.332 53.6133 164.332 54.543V54.7891C164.332 55.7109 164.199 56.5664 163.934 57.3555C163.668 58.1367 163.277 58.8203 162.762 59.4062C162.254 59.9844 161.629 60.4336 160.887 60.7539C160.145 61.0742 159.293 61.2344 158.332 61.2344C157.371 61.2344 156.516 61.0742 155.766 60.7539C155.023 60.4336 154.395 59.9844 153.879 59.4062C153.371 58.8203 152.984 58.1367 152.719 57.3555C152.453 56.5664 152.32 55.7109 152.32 54.7891ZM155.695 54.543V54.7891C155.695 55.3203 155.742 55.8164 155.836 56.2773C155.93 56.7383 156.078 57.1445 156.281 57.4961C156.492 57.8398 156.766 58.1094 157.102 58.3047C157.438 58.5 157.848 58.5977 158.332 58.5977C158.801 58.5977 159.203 58.5 159.539 58.3047C159.875 58.1094 160.145 57.8398 160.348 57.4961C160.551 57.1445 160.699 56.7383 160.793 56.2773C160.895 55.8164 160.945 55.3203 160.945 54.7891V54.543C160.945 54.0273 160.895 53.543 160.793 53.0898C160.699 52.6289 160.547 52.2227 160.336 51.8711C160.133 51.5117 159.863 51.2305 159.527 51.0273C159.191 50.8242 158.785 50.7227 158.309 50.7227C157.832 50.7227 157.426 50.8242 157.09 51.0273C156.762 51.2305 156.492 51.5117 156.281 51.8711C156.078 52.2227 155.93 52.6289 155.836 53.0898C155.742 53.543 155.695 54.0273 155.695 54.543ZM173.906 57.9648V48.3203H177.281V61H174.105L173.906 57.9648ZM174.281 55.3633L175.277 55.3398C175.277 56.1836 175.18 56.9688 174.984 57.6953C174.789 58.4141 174.496 59.0391 174.105 59.5703C173.715 60.0938 173.223 60.5039 172.629 60.8008C172.035 61.0898 171.336 61.2344 170.531 61.2344C169.914 61.2344 169.344 61.1484 168.82 60.9766C168.305 60.7969 167.859 60.5195 167.484 60.1445C167.117 59.7617 166.828 59.2734 166.617 58.6797C166.414 58.0781 166.312 57.3555 166.312 56.5117V48.3203H169.688V56.5352C169.688 56.9102 169.73 57.2266 169.816 57.4844C169.91 57.7422 170.039 57.9531 170.203 58.1172C170.367 58.2812 170.559 58.3984 170.777 58.4688C171.004 58.5391 171.254 58.5742 171.527 58.5742C172.223 58.5742 172.77 58.4336 173.168 58.1523C173.574 57.8711 173.859 57.4883 174.023 57.0039C174.195 56.5117 174.281 55.9648 174.281 55.3633ZM186.07 48.3203V50.7109H178.688V48.3203H186.07ZM180.516 45.1914H183.891V57.1797C183.891 57.5469 183.938 57.8281 184.031 58.0234C184.133 58.2188 184.281 58.3555 184.477 58.4336C184.672 58.5039 184.918 58.5391 185.215 58.5391C185.426 58.5391 185.613 58.5312 185.777 58.5156C185.949 58.4922 186.094 58.4688 186.211 58.4453L186.223 60.9297C185.934 61.0234 185.621 61.0977 185.285 61.1523C184.949 61.207 184.578 61.2344 184.172 61.2344C183.43 61.2344 182.781 61.1133 182.227 60.8711C181.68 60.6211 181.258 60.2227 180.961 59.6758C180.664 59.1289 180.516 58.4102 180.516 57.5195V45.1914ZM193.828 61.2344C192.844 61.2344 191.961 61.0781 191.18 60.7656C190.398 60.4453 189.734 60.0039 189.188 59.4414C188.648 58.8789 188.234 58.2266 187.945 57.4844C187.656 56.7344 187.512 55.9375 187.512 55.0938V54.625C187.512 53.6641 187.648 52.7852 187.922 51.9883C188.195 51.1914 188.586 50.5 189.094 49.9141C189.609 49.3281 190.234 48.8789 190.969 48.5664C191.703 48.2461 192.531 48.0859 193.453 48.0859C194.352 48.0859 195.148 48.2344 195.844 48.5312C196.539 48.8281 197.121 49.25 197.59 49.7969C198.066 50.3438 198.426 51 198.668 51.7656C198.91 52.5234 199.031 53.3672 199.031 54.2969V55.7031H188.953V53.4531H195.715V53.1953C195.715 52.7266 195.629 52.3086 195.457 51.9414C195.293 51.5664 195.043 51.2695 194.707 51.0508C194.371 50.832 193.941 50.7227 193.418 50.7227C192.973 50.7227 192.59 50.8203 192.27 51.0156C191.949 51.2109 191.688 51.4844 191.484 51.8359C191.289 52.1875 191.141 52.6016 191.039 53.0781C190.945 53.5469 190.898 54.0625 190.898 54.625V55.0938C190.898 55.6016 190.969 56.0703 191.109 56.5C191.258 56.9297 191.465 57.3008 191.73 57.6133C192.004 57.9258 192.332 58.168 192.715 58.3398C193.105 58.5117 193.547 58.5977 194.039 58.5977C194.648 58.5977 195.215 58.4805 195.738 58.2461C196.27 58.0039 196.727 57.6406 197.109 57.1562L198.75 58.9375C198.484 59.3203 198.121 59.6875 197.66 60.0391C197.207 60.3906 196.66 60.6797 196.02 60.9062C195.379 61.125 194.648 61.2344 193.828 61.2344ZM207.809 57.4961C207.809 57.2539 207.738 57.0352 207.598 56.8398C207.457 56.6445 207.195 56.4648 206.812 56.3008C206.438 56.1289 205.895 55.9727 205.184 55.832C204.543 55.6914 203.945 55.5156 203.391 55.3047C202.844 55.0859 202.367 54.8242 201.961 54.5195C201.562 54.2148 201.25 53.8555 201.023 53.4414C200.797 53.0195 200.684 52.5391 200.684 52C200.684 51.4688 200.797 50.9688 201.023 50.5C201.258 50.0312 201.59 49.6172 202.02 49.2578C202.457 48.8906 202.988 48.6055 203.613 48.4023C204.246 48.1914 204.957 48.0859 205.746 48.0859C206.848 48.0859 207.793 48.2617 208.582 48.6133C209.379 48.9648 209.988 49.4492 210.41 50.0664C210.84 50.6758 211.055 51.3711 211.055 52.1523H207.68C207.68 51.8242 207.609 51.5312 207.469 51.2734C207.336 51.0078 207.125 50.8008 206.836 50.6523C206.555 50.4961 206.188 50.418 205.734 50.418C205.359 50.418 205.035 50.4844 204.762 50.6172C204.488 50.7422 204.277 50.9141 204.129 51.1328C203.988 51.3438 203.918 51.5781 203.918 51.8359C203.918 52.0312 203.957 52.207 204.035 52.3633C204.121 52.5117 204.258 52.6484 204.445 52.7734C204.633 52.8984 204.875 53.0156 205.172 53.125C205.477 53.2266 205.852 53.3203 206.297 53.4062C207.211 53.5938 208.027 53.8398 208.746 54.1445C209.465 54.4414 210.035 54.8477 210.457 55.3633C210.879 55.8711 211.09 56.5391 211.09 57.3672C211.09 57.9297 210.965 58.4453 210.715 58.9141C210.465 59.3828 210.105 59.793 209.637 60.1445C209.168 60.4883 208.605 60.7578 207.949 60.9531C207.301 61.1406 206.57 61.2344 205.758 61.2344C204.578 61.2344 203.578 61.0234 202.758 60.6016C201.945 60.1797 201.328 59.6445 200.906 58.9961C200.492 58.3398 200.285 57.668 200.285 56.9805H203.484C203.5 57.4414 203.617 57.8125 203.836 58.0938C204.062 58.375 204.348 58.5781 204.691 58.7031C205.043 58.8281 205.422 58.8906 205.828 58.8906C206.266 58.8906 206.629 58.832 206.918 58.7148C207.207 58.5898 207.426 58.4258 207.574 58.2227C207.73 58.0117 207.809 57.7695 207.809 57.4961Z" fill="#888888"/>
<path d="M109.219 107.422H100.734V101.07H109.219C110.375 101.07 111.312 100.875 112.031 100.484C112.75 100.094 113.273 99.5547 113.602 98.8672C113.945 98.1641 114.117 97.375 114.117 96.5C114.117 95.5625 113.945 94.6953 113.602 93.8984C113.273 93.1016 112.75 92.4609 112.031 91.9766C111.312 91.4766 110.375 91.2266 109.219 91.2266H103.828V119H95.6016V84.875H109.219C111.953 84.875 114.305 85.375 116.273 86.375C118.258 87.375 119.781 88.75 120.844 90.5C121.906 92.2344 122.438 94.2188 122.438 96.4531C122.438 98.6562 121.906 100.578 120.844 102.219C119.781 103.859 118.258 105.141 116.273 106.062C114.305 106.969 111.953 107.422 109.219 107.422ZM134.461 99.9219V119H126.562V93.6406H133.945L134.461 99.9219ZM141.961 93.4531L141.82 100.789C141.508 100.758 141.086 100.719 140.555 100.672C140.023 100.625 139.578 100.602 139.219 100.602C138.297 100.602 137.5 100.711 136.828 100.93C136.172 101.133 135.625 101.445 135.188 101.867C134.766 102.273 134.453 102.789 134.25 103.414C134.062 104.039 133.977 104.766 133.992 105.594L132.562 104.656C132.562 102.953 132.727 101.406 133.055 100.016C133.398 98.6094 133.883 97.3984 134.508 96.3828C135.133 95.3516 135.891 94.5625 136.781 94.0156C137.672 93.4531 138.672 93.1719 139.781 93.1719C140.172 93.1719 140.555 93.1953 140.93 93.2422C141.32 93.2891 141.664 93.3594 141.961 93.4531ZM142.852 106.578V106.086C142.852 104.227 143.117 102.516 143.648 100.953C144.18 99.375 144.961 98.0078 145.992 96.8516C147.023 95.6953 148.297 94.7969 149.812 94.1562C151.328 93.5 153.078 93.1719 155.062 93.1719C157.062 93.1719 158.82 93.5 160.336 94.1562C161.867 94.7969 163.148 95.6953 164.18 96.8516C165.211 98.0078 165.992 99.375 166.523 100.953C167.055 102.516 167.32 104.227 167.32 106.086V106.578C167.32 108.422 167.055 110.133 166.523 111.711C165.992 113.273 165.211 114.641 164.18 115.812C163.148 116.969 161.875 117.867 160.359 118.508C158.844 119.148 157.094 119.469 155.109 119.469C153.125 119.469 151.367 119.148 149.836 118.508C148.305 117.867 147.023 116.969 145.992 115.812C144.961 114.641 144.18 113.273 143.648 111.711C143.117 110.133 142.852 108.422 142.852 106.578ZM150.75 106.086V106.578C150.75 107.531 150.82 108.422 150.961 109.25C151.102 110.078 151.336 110.805 151.664 111.43C151.992 112.039 152.438 112.516 153 112.859C153.562 113.203 154.266 113.375 155.109 113.375C155.938 113.375 156.625 113.203 157.172 112.859C157.734 112.516 158.18 112.039 158.508 111.43C158.836 110.805 159.07 110.078 159.211 109.25C159.352 108.422 159.422 107.531 159.422 106.578V106.086C159.422 105.164 159.352 104.297 159.211 103.484C159.07 102.656 158.836 101.93 158.508 101.305C158.18 100.664 157.734 100.164 157.172 99.8047C156.609 99.4453 155.906 99.2656 155.062 99.2656C154.234 99.2656 153.539 99.4453 152.977 99.8047C152.43 100.164 151.992 100.664 151.664 101.305C151.336 101.93 151.102 102.656 150.961 103.484C150.82 104.297 150.75 105.164 150.75 106.086ZM184.195 93.6406V99.125H168.914V93.6406H184.195ZM172.125 87.3359H180.023V110.727C180.023 111.398 180.102 111.922 180.258 112.297C180.414 112.656 180.68 112.914 181.055 113.07C181.445 113.211 181.961 113.281 182.602 113.281C183.055 113.281 183.43 113.273 183.727 113.258C184.023 113.227 184.305 113.188 184.57 113.141V118.789C183.898 119.008 183.195 119.172 182.461 119.281C181.727 119.406 180.945 119.469 180.117 119.469C178.43 119.469 176.984 119.203 175.781 118.672C174.594 118.141 173.688 117.305 173.062 116.164C172.438 115.023 172.125 113.539 172.125 111.711V87.3359ZM185.648 106.578V106.086C185.648 104.227 185.914 102.516 186.445 100.953C186.977 99.375 187.758 98.0078 188.789 96.8516C189.82 95.6953 191.094 94.7969 192.609 94.1562C194.125 93.5 195.875 93.1719 197.859 93.1719C199.859 93.1719 201.617 93.5 203.133 94.1562C204.664 94.7969 205.945 95.6953 206.977 96.8516C208.008 98.0078 208.789 99.375 209.32 100.953C209.852 102.516 210.117 104.227 210.117 106.086V106.578C210.117 108.422 209.852 110.133 209.32 111.711C208.789 113.273 208.008 114.641 206.977 115.812C205.945 116.969 204.672 117.867 203.156 118.508C201.641 119.148 199.891 119.469 197.906 119.469C195.922 119.469 194.164 119.148 192.633 118.508C191.102 117.867 189.82 116.969 188.789 115.812C187.758 114.641 186.977 113.273 186.445 111.711C185.914 110.133 185.648 108.422 185.648 106.578ZM193.547 106.086V106.578C193.547 107.531 193.617 108.422 193.758 109.25C193.898 110.078 194.133 110.805 194.461 111.43C194.789 112.039 195.234 112.516 195.797 112.859C196.359 113.203 197.062 113.375 197.906 113.375C198.734 113.375 199.422 113.203 199.969 112.859C200.531 112.516 200.977 112.039 201.305 111.43C201.633 110.805 201.867 110.078 202.008 109.25C202.148 108.422 202.219 107.531 202.219 106.578V106.086C202.219 105.164 202.148 104.297 202.008 103.484C201.867 102.656 201.633 101.93 201.305 101.305C200.977 100.664 200.531 100.164 199.969 99.8047C199.406 99.4453 198.703 99.2656 197.859 99.2656C197.031 99.2656 196.336 99.4453 195.773 99.8047C195.227 100.164 194.789 100.664 194.461 101.305C194.133 101.93 193.898 102.656 193.758 103.484C193.617 104.297 193.547 105.164 193.547 106.086ZM226.992 93.6406V99.125H211.711V93.6406H226.992ZM214.922 87.3359H222.82V110.727C222.82 111.398 222.898 111.922 223.055 112.297C223.211 112.656 223.477 112.914 223.852 113.07C224.242 113.211 224.758 113.281 225.398 113.281C225.852 113.281 226.227 113.273 226.523 113.258C226.82 113.227 227.102 113.188 227.367 113.141V118.789C226.695 119.008 225.992 119.172 225.258 119.281C224.523 119.406 223.742 119.469 222.914 119.469C221.227 119.469 219.781 119.203 218.578 118.672C217.391 118.141 216.484 117.305 215.859 116.164C215.234 115.023 214.922 113.539 214.922 111.711V87.3359ZM237.914 116.023L244.477 93.6406H252.961L242.766 122.773C242.547 123.414 242.258 124.102 241.898 124.836C241.539 125.586 241.047 126.297 240.422 126.969C239.797 127.641 238.992 128.188 238.008 128.609C237.039 129.031 235.836 129.242 234.398 129.242C233.633 129.242 233.07 129.203 232.711 129.125C232.367 129.062 231.836 128.945 231.117 128.773V123.125C231.32 123.125 231.492 123.125 231.633 123.125C231.789 123.125 231.961 123.125 232.148 123.125C232.992 123.125 233.664 123.039 234.164 122.867C234.68 122.695 235.07 122.445 235.336 122.117C235.617 121.789 235.836 121.391 235.992 120.922L237.914 116.023ZM236.25 93.6406L241.242 111.383L242.109 119.75H236.812L227.789 93.6406H236.25ZM262.992 98.5156V128.75H255.094V93.6406H262.453L262.992 98.5156ZM278.555 106.016V106.508C278.555 108.352 278.344 110.062 277.922 111.641C277.5 113.219 276.875 114.594 276.047 115.766C275.219 116.938 274.188 117.852 272.953 118.508C271.734 119.148 270.32 119.469 268.711 119.469C267.195 119.469 265.891 119.133 264.797 118.461C263.703 117.789 262.789 116.859 262.055 115.672C261.32 114.484 260.727 113.125 260.273 111.594C259.82 110.062 259.461 108.445 259.195 106.742V106.109C259.461 104.281 259.82 102.586 260.273 101.023C260.727 99.4453 261.32 98.0703 262.055 96.8984C262.789 95.7266 263.695 94.8125 264.773 94.1562C265.867 93.5 267.172 93.1719 268.688 93.1719C270.297 93.1719 271.711 93.4766 272.93 94.0859C274.164 94.6953 275.195 95.5703 276.023 96.7109C276.867 97.8359 277.5 99.1875 277.922 100.766C278.344 102.344 278.555 104.094 278.555 106.016ZM270.656 106.508V106.016C270.656 105.031 270.586 104.133 270.445 103.32C270.305 102.492 270.078 101.773 269.766 101.164C269.469 100.555 269.07 100.086 268.57 99.7578C268.07 99.4297 267.453 99.2656 266.719 99.2656C265.875 99.2656 265.164 99.3984 264.586 99.6641C264.023 99.9141 263.57 100.305 263.227 100.836C262.898 101.352 262.664 102 262.523 102.781C262.398 103.547 262.344 104.445 262.359 105.477V107.398C262.328 108.586 262.445 109.633 262.711 110.539C262.977 111.43 263.438 112.125 264.094 112.625C264.75 113.125 265.641 113.375 266.766 113.375C267.516 113.375 268.141 113.203 268.641 112.859C269.141 112.5 269.539 112.008 269.836 111.383C270.133 110.742 270.344 110.008 270.469 109.18C270.594 108.352 270.656 107.461 270.656 106.508ZM290.414 93.6406V119H282.492V93.6406H290.414ZM282.023 87.1016C282.023 85.9766 282.43 85.0547 283.242 84.3359C284.055 83.6172 285.109 83.2578 286.406 83.2578C287.703 83.2578 288.758 83.6172 289.57 84.3359C290.383 85.0547 290.789 85.9766 290.789 87.1016C290.789 88.2266 290.383 89.1484 289.57 89.8672C288.758 90.5859 287.703 90.9453 286.406 90.9453C285.109 90.9453 284.055 90.5859 283.242 89.8672C282.43 89.1484 282.023 88.2266 282.023 87.1016ZM303.047 99.0547V119H295.148V93.6406H302.555L303.047 99.0547ZM302.109 105.453L300.258 105.5C300.258 103.562 300.492 101.836 300.961 100.32C301.43 98.7891 302.094 97.4922 302.953 96.4297C303.812 95.3672 304.836 94.5625 306.023 94.0156C307.227 93.4531 308.562 93.1719 310.031 93.1719C311.203 93.1719 312.273 93.3438 313.242 93.6875C314.227 94.0312 315.07 94.5859 315.773 95.3516C316.492 96.1172 317.039 97.1328 317.414 98.3984C317.805 99.6484 318 101.195 318 103.039V119H310.055V103.016C310.055 102 309.914 101.227 309.633 100.695C309.352 100.148 308.945 99.7734 308.414 99.5703C307.883 99.3672 307.234 99.2656 306.469 99.2656C305.656 99.2656 304.969 99.4219 304.406 99.7344C303.844 100.047 303.391 100.484 303.047 101.047C302.719 101.594 302.477 102.242 302.32 102.992C302.18 103.742 302.109 104.562 302.109 105.453ZM338.32 93.6406H345.492V118.016C345.492 120.359 344.953 122.344 343.875 123.969C342.797 125.609 341.289 126.852 339.352 127.695C337.43 128.555 335.18 128.984 332.602 128.984C331.461 128.984 330.297 128.836 329.109 128.539C327.922 128.258 326.812 127.836 325.781 127.273C324.75 126.711 323.883 126.016 323.18 125.188L326.484 120.547C327.125 121.266 327.93 121.875 328.898 122.375C329.867 122.891 331.008 123.148 332.32 123.148C333.461 123.148 334.414 122.945 335.18 122.539C335.961 122.133 336.555 121.539 336.961 120.758C337.367 119.992 337.57 119.062 337.57 117.969V99.6406L338.32 93.6406ZM321.469 106.625V106.133C321.469 104.211 321.703 102.461 322.172 100.883C322.656 99.2891 323.344 97.9219 324.234 96.7812C325.141 95.625 326.234 94.7344 327.516 94.1094C328.797 93.4844 330.242 93.1719 331.852 93.1719C333.586 93.1719 335.008 93.5078 336.117 94.1797C337.242 94.8359 338.141 95.7578 338.812 96.9453C339.5 98.1328 340.031 99.5234 340.406 101.117C340.797 102.695 341.125 104.398 341.391 106.227V106.812C341.125 108.531 340.758 110.156 340.289 111.688C339.836 113.203 339.242 114.547 338.508 115.719C337.773 116.891 336.852 117.812 335.742 118.484C334.648 119.141 333.336 119.469 331.805 119.469C330.211 119.469 328.773 119.148 327.492 118.508C326.227 117.867 325.141 116.969 324.234 115.812C323.344 114.656 322.656 113.297 322.172 111.734C321.703 110.172 321.469 108.469 321.469 106.625ZM329.367 106.133V106.625C329.367 107.578 329.453 108.461 329.625 109.273C329.812 110.086 330.094 110.805 330.469 111.43C330.844 112.039 331.305 112.516 331.852 112.859C332.414 113.203 333.07 113.375 333.82 113.375C334.961 113.375 335.883 113.133 336.586 112.648C337.289 112.164 337.797 111.477 338.109 110.586C338.422 109.695 338.555 108.648 338.508 107.445V105.594C338.539 104.562 338.469 103.656 338.297 102.875C338.125 102.078 337.852 101.414 337.477 100.883C337.117 100.352 336.633 99.9531 336.023 99.6875C335.43 99.4062 334.711 99.2656 333.867 99.2656C333.133 99.2656 332.484 99.4375 331.922 99.7812C331.359 100.125 330.891 100.609 330.516 101.234C330.141 101.844 329.852 102.57 329.648 103.414C329.461 104.242 329.367 105.148 329.367 106.133Z" fill="black"/>
<path d="M1134 0H1348C1356.28 0 1363 6.71573 1363 15V148C1363 156.284 1356.28 163 1348 163H1134V0Z" fill="#AB1212"/>
<path fill-rule="evenodd" clip-rule="evenodd" d="M1202.75 46.5018C1202.75 45.3973 1203.65 44.5018 1204.75 44.5018H1292.25C1293.35 44.5018 1294.25 45.3973 1294.25 46.5018V116.498C1294.25 117.603 1293.35 118.498 1292.25 118.498H1204.75C1203.65 118.498 1202.75 117.603 1202.75 116.498V46.5018ZM1206.75 48.5018V52.9963H1290.25V48.5018H1206.75ZM1290.25 56.9963H1235.19V114.498H1290.25V56.9963ZM1231.19 114.498V56.9963H1206.75V114.498H1231.19Z" fill="white"/>
<path fill-rule="evenodd" clip-rule="evenodd" d="M1209.72 62.3022C1209.72 61.1976 1210.62 60.3022 1211.72 60.3022H1225.72C1226.83 60.3022 1227.72 61.1976 1227.72 62.3022V81.6974C1227.72 82.802 1226.83 83.6974 1225.72 83.6974H1211.72C1210.62 83.6974 1209.72 82.802 1209.72 81.6974V62.3022ZM1213.72 64.3022V79.6974H1223.72V64.3022H1213.72ZM1239.33 63.1982C1239.33 62.0936 1240.22 61.1982 1241.33 61.1982H1284.25C1285.36 61.1982 1286.25 62.0936 1286.25 63.1982V109.407C1286.25 110.511 1285.36 111.407 1284.25 111.407H1241.33C1240.22 111.407 1239.33 110.511 1239.33 109.407V63.1982ZM1243.33 65.1982V107.407H1282.25V65.1982H1243.33ZM1209.56 93.4381C1209.56 92.3336 1210.46 91.4381 1211.56 91.4381H1220.48C1221.59 91.4381 1222.48 92.3336 1222.48 93.4381C1222.48 94.5427 1221.59 95.4381 1220.48 95.4381H1211.56C1210.46 95.4381 1209.56 94.5427 1209.56 93.4381ZM1209.56 100.438C1209.56 99.3335 1210.46 98.4381 1211.56 98.4381H1226.1C1227.21 98.4381 1228.1 99.3335 1228.1 100.438C1228.1 101.543 1227.21 102.438 1226.1 102.438H1211.56C1210.46 102.438 1209.56 101.543 1209.56 100.438ZM1209.56 107.438C1209.56 106.334 1210.46 105.438 1211.56 105.438H1220.48C1221.59 105.438 1222.48 106.334 1222.48 107.438C1222.48 108.543 1221.59 109.438 1220.48 109.438H1211.56C1210.46 109.438 1209.56 108.543 1209.56 107.438Z" fill="white"/>
</svg>
